<svg width="82" height="49" fill="none" xmlns="http://www.w3.org/2000/svg"><path d="M7.837 40.553c-2.406 0-4.24-.571-5.505-1.713C1.068 37.698.436 36.033.436 33.845c0-2.216.66-3.908 1.978-5.077s3.228-1.753 5.729-1.753c.843 0 1.59.047 2.242.143.667.095 1.305.244 1.917.448v3.731a8.593 8.593 0 00-1.896-.469 13.262 13.262 0 00-1.957-.142c-1.115 0-1.985.237-2.61.713-.625.476-.938 1.278-.938 2.406 0 1.087.245 1.862.734 2.324.503.449 1.23.673 2.182.673.584 0 1.1-.068 1.55-.204v-1.346H6.98v-2.67h6.035v6.687c-.53.34-1.224.632-2.08.877-.856.244-1.89.367-3.099.367zm12.87 0c-1.468 0-2.712-.225-3.732-.673a4.828 4.828 0 01-2.344-2.161c-.53-.992-.795-2.297-.795-3.915 0-1.645.265-2.963.795-3.955a4.828 4.828 0 012.345-2.161c1.019-.449 2.263-.673 3.73-.673 1.468 0 2.712.224 3.732.673a4.728 4.728 0 012.324 2.16c.543.993.815 2.312.815 3.956 0 1.618-.272 2.922-.815 3.915a4.728 4.728 0 01-2.324 2.16c-1.02.45-2.264.674-3.732.674zm0-3.711c.842 0 1.447-.238 1.814-.714.38-.475.57-1.25.57-2.324 0-1.128-.19-1.916-.57-2.365-.367-.462-.972-.693-1.815-.693-.856 0-1.474.231-1.855.693-.367.449-.55 1.237-.55 2.365 0 1.074.183 1.849.55 2.324.38.476 1 .714 1.855.714zm8.09 3.507v-13.13h7.096c1.1 0 2.005.21 2.712.632a3.75 3.75 0 011.59 1.692c.353.72.53 1.543.53 2.467 0 .884-.224 1.665-.673 2.345a5.11 5.11 0 01-1.692 1.59c.258.204.476.503.652.897l1.53 3.507h-4.568L34.63 37.31c-.095-.204-.197-.347-.306-.428-.109-.082-.279-.123-.51-.123h-.632v3.589h-4.383zm4.384-6.973h1.611c.979 0 1.468-.455 1.468-1.366 0-.924-.455-1.386-1.366-1.386h-1.713v2.752zm8.758 6.973v-13.13h4.383v9.786h5.627v3.344H41.94zm17.095.204c-1.468 0-2.712-.225-3.731-.673a4.828 4.828 0 01-2.345-2.161c-.53-.992-.795-2.297-.795-3.915 0-1.645.265-2.963.795-3.955a4.828 4.828 0 012.345-2.161c1.02-.449 2.263-.673 3.73-.673 1.469 0 2.712.224 3.732.673a4.728 4.728 0 012.324 2.16c.544.993.816 2.312.816 3.956 0 1.618-.272 2.922-.816 3.915a4.728 4.728 0 01-2.324 2.16c-1.02.45-2.263.674-3.731.674zm0-3.711c.843 0 1.447-.238 1.814-.714.381-.475.571-1.25.571-2.324 0-1.128-.19-1.916-.57-2.365-.368-.462-.972-.693-1.815-.693-.856 0-1.475.231-1.855.693-.367.449-.551 1.237-.551 2.365 0 1.074.184 1.849.55 2.324.381.476 1 .714 1.856.714zm11.704 3.507l-5.036-13.13h4.567l2.752 7.992 2.773-7.992h4.588l-5.057 13.13h-4.587zM5.166 22.829v-4.792L.436 9.7h4.567l2.365 4.567L9.733 9.7H14.3l-4.75 8.338v4.792H5.166zm16.631.203c-1.223 0-2.317-.203-3.282-.611-.965-.408-1.726-1.006-2.284-1.794-.543-.789-.815-1.76-.815-2.916V9.7h4.383v7.5c0 1.414.666 2.12 1.998 2.12 1.332 0 1.998-.706 1.998-2.12V9.7h4.384v8.012c0 1.155-.279 2.127-.836 2.916-.544.788-1.298 1.386-2.263 1.794-.952.408-2.046.611-3.283.611zm7.917-.203V9.699h7.095c1.1 0 2.005.21 2.712.632a3.75 3.75 0 011.59 1.692c.353.72.53 1.543.53 2.467 0 .883-.224 1.665-.673 2.344a5.111 5.111 0 01-1.692 1.59c.258.205.475.504.652.898l1.53 3.507H36.89l-1.345-3.038c-.095-.204-.197-.347-.306-.428-.109-.082-.279-.123-.51-.123h-.632v3.589h-4.383zm4.383-6.973h1.61c.98 0 1.469-.456 1.469-1.366 0-.924-.456-1.386-1.366-1.386h-1.713v2.752zm8.758 6.973V9.699h4.383v13.13h-4.383zm9.937 0v-4.792L48.062 9.7h4.567l2.364 4.567L57.358 9.7h4.568l-4.751 8.338v4.792h-4.383z" fill="#20203C"/></svg>